<svg width="74" height="79" viewBox="0 0 74 79" fill="none" xmlns="http://www.w3.org/2000/svg">
<g clip-path="url(#clip0_121_33)">
<path d="M0 78.6641V0.186768C24.2782 0.186768 48.5625 0.186768 72.8407 0.186768C73.1613 0.186768 73.482 0.199212 73.8027 0.205435C74.1172 19.8497 73.3402 39.5188 73.8397 59.1568C73.8335 59.4554 73.815 59.7479 73.815 60.0466C73.815 66.2441 73.8027 72.4479 73.8027 78.6454C57.3932 78.9503 40.9652 78.2783 24.5557 78.689C24.2597 78.6827 23.9637 78.6641 23.6738 78.6641C15.7805 78.6641 7.89333 78.6641 0 78.6641ZM19.6593 30.7327C19.388 30.4091 19.018 30.5522 18.7097 30.5771C17.8587 30.6394 16.983 30.3469 16.1567 30.7327C16.206 31.6661 15.9347 32.6119 16.2923 33.5266C17.3715 33.5266 18.4445 33.5266 19.5237 33.5266C19.7703 33.4581 19.6717 33.2466 19.6778 33.0972C19.6778 32.3132 19.6778 31.5229 19.6655 30.7389L19.6593 30.7327ZM32.0852 47.9564C32.5477 47.7261 32.5415 40.3837 32.1222 40.0788C32.4675 38.7658 33.1582 37.7703 34.6197 37.932C36.3217 38.1187 36.2353 39.4254 36.408 40.8255C36.4018 43.0531 36.3957 45.2807 36.3895 47.5084C36.3895 47.6701 36.3402 47.863 36.5498 47.9564C37.1295 47.9564 39.3002 48.2924 39.7257 47.9439C40.2128 47.5457 39.9415 46.2763 39.9353 45.7225C39.9353 44.8265 40.478 39.9294 39.7997 39.4814C39.923 34.883 34.114 33.7568 31.5918 37.1356C30.0193 35.2439 27.4293 34.3168 25.2217 36.0218C25.0922 36.1213 24.4447 36.9613 24.309 36.9116C23.8588 36.7436 24.3645 36.4636 24.1117 36.028C23.569 35.0822 22.1938 35.4804 21.0222 35.4866C20.7508 35.6546 20.8618 35.9346 20.8557 36.1586C20.8495 39.8174 20.8495 43.4762 20.8557 47.1412C20.8557 47.3777 20.7755 47.639 20.9852 47.8444L21.016 47.8319C21.7807 48.1742 22.5823 47.9315 23.3655 47.975C23.6985 47.9937 24.087 48.1555 24.383 47.8319C24.3892 45.4052 24.4015 42.9722 24.4077 40.5455C24.4077 39.3196 24.7962 38.1934 26.5413 37.8947C27.3492 37.7578 28.157 38.2494 28.4715 39.0334C28.712 39.6245 28.675 40.2343 28.7182 40.8379C28.712 43.0344 28.712 45.231 28.6873 47.4275C28.6873 47.8257 28.7737 48.0124 29.2115 47.9937C30.1673 47.9564 31.1232 47.9688 32.079 47.9564H32.0852ZM19.6593 35.4991C19.388 35.1693 19.018 35.3186 18.7035 35.3435C17.8525 35.4057 16.9707 35.1133 16.1443 35.4991C16.1382 39.5063 16.132 43.5136 16.1258 47.5208C16.1258 47.6764 16.0518 47.8817 16.28 47.9626C16.835 47.9688 17.3962 48.0062 17.9512 47.975C18.5123 47.9439 19.092 48.1493 19.6285 47.8319C19.6347 43.7189 19.647 39.6059 19.6532 35.4991H19.6593ZM57.8372 30.714C57.1218 30.3718 56.3633 30.6082 55.6233 30.5771C55.241 30.5585 54.797 30.3842 54.4455 30.7265C54.4455 36.4262 54.4517 42.126 54.4578 47.8257C54.612 48.1306 54.8957 47.9875 55.1053 47.9688C56.0118 47.9004 56.9368 48.1742 57.8248 47.8195L57.8557 47.8319C58.0653 47.6328 57.9852 47.3652 57.9852 47.1288C57.9852 41.8833 57.9852 36.6378 57.9852 31.3923C57.9852 31.162 58.0838 30.8882 57.8372 30.7078V30.714ZM3.5705 52.3183C3.28067 52.5174 3.41017 52.8161 3.41017 53.0712C3.404 60.0528 3.404 67.0406 3.41017 74.0221C3.41017 74.2835 3.3115 74.5697 3.53967 74.7937L3.55817 74.7813C3.73083 75.0551 4.00833 74.9306 4.23033 74.9306C26.2638 74.9368 48.2973 74.9368 70.3308 74.9306C70.5528 74.9306 70.8303 75.0675 70.9907 74.7688C70.9907 71.5705 71.0092 68.3722 71.0092 65.1738C71.0092 60.9364 70.9968 56.6927 70.9845 52.4552C70.7995 52.1316 70.4973 52.3059 70.263 52.3059C65.9772 52.2934 61.6913 52.2996 57.3993 52.2934C53.1628 52.2934 48.9263 52.281 44.6898 52.2747C44.6898 50.6818 44.6775 49.0889 44.6898 47.4959C44.6898 47.2595 44.5973 46.9981 44.8132 46.799C46.0588 48.3671 48.3035 48.6595 50.0918 47.9813C52.3303 47.135 53.4897 44.9261 53.7117 42.6238C53.9522 40.1161 53.1998 37.2227 50.912 35.8786C48.7475 34.603 45.9602 34.9764 44.3815 36.9427V35.4866C43.3023 35.2066 42.2232 35.2066 41.1502 35.4866C41.144 41.0868 41.1378 46.687 41.1255 52.2934C40.5335 52.2934 39.9415 52.2934 39.3495 52.2934C34.4223 52.2996 29.4952 52.3121 24.568 52.3183C17.5688 52.3183 10.5758 52.3121 3.57667 52.3059L3.5705 52.3183ZM11.9695 39.0707C13.0055 39.3508 14.06 39.1579 15.1022 39.1641C15.2502 39.1641 15.2193 38.9899 15.1022 38.8903C15.0343 33.2279 2.6085 34.0244 4.403 39.9108C4.85317 41.3979 6.16667 41.9144 7.5295 42.3064C8.68267 42.6424 11.2418 42.7109 11.9387 43.806C13.2152 45.8096 8.20167 46.9732 7.22117 43.974C6.61067 43.6131 5.95083 43.862 5.32183 43.8371C4.89633 43.8185 4.41533 43.6318 4.0145 43.974C4.181 50.688 17.6305 49.2071 15.3858 42.8913C14.9172 41.5784 13.7147 41.0681 12.4752 40.6948C11.3035 40.3401 8.75667 40.3215 7.9735 39.245C6.74017 37.5462 11.1617 36.7062 11.9633 39.0707H11.9695ZM67.6113 44.1296C66.9207 45.4301 65.4098 46.0025 64.01 45.6479C62.4683 45.2621 62.1415 44.0425 61.8578 42.6424C64.6082 42.6424 67.3647 42.6362 70.115 42.6175C70.3555 42.6175 70.6577 42.7731 70.8488 42.462C71.0462 38.8467 69.0975 35.6297 65.3667 35.1942C61.7653 34.7773 58.608 37.6334 58.4477 41.2486C58.3058 44.4594 60.0017 47.5208 63.2638 48.1804C66.4705 48.8337 69.4922 47.4275 70.6145 44.2665C70.6885 44.1856 70.7132 44.0362 70.6145 44.03C69.6155 43.9865 68.6103 43.7873 67.6237 44.1234L67.6113 44.1296Z" fill="#9D1722"/>
<path d="M73.963 78.8132C73.8273 79.1181 73.5622 78.9501 73.371 78.9501C69.6957 78.9626 66.0265 78.9563 62.3512 78.9563C41.7915 78.9563 21.2257 78.9563 0.666 78.9501C0.450167 78.9501 0.1665 79.1243 0 78.8132C5.26017 78.8132 10.5203 78.8132 15.7805 78.8132C18.7035 78.8132 21.6327 78.8008 24.5557 78.7883C32.745 79.1243 41.0145 78.8132 49.2162 78.8132C57.3993 78.8132 65.6257 79.0683 73.8027 78.7945L73.963 78.8132Z" fill="white"/>
<path d="M73.8027 0.205125C73.482 0.205125 73.1613 0.186457 72.8407 0.186457C48.5625 0.186457 24.2782 0.186457 0 0.186457C0.135667 -0.124664 0.400833 0.0433413 0.592 0.0433413C4.19333 0.0308964 7.7885 0.0371189 11.3898 0.0371189H73.815C73.815 0.0931208 73.8027 0.149123 73.8027 0.205125Z" fill="#CE8B90"/>
<path d="M73.8028 0.205359C73.8028 0.149357 73.8151 0.0933554 73.8151 0.0373535C74.1235 0.174247 73.9508 0.441812 73.957 0.634707C73.9693 9.32122 73.9631 18.0077 73.9631 26.6943V59.1567C73.92 59.1567 73.883 59.1567 73.8398 59.1567C73.3403 39.5187 74.1111 19.8434 73.8028 0.205359Z" fill="#E6C4C7"/>
<path d="M24.5557 78.7885C21.6327 78.7947 18.7035 78.8072 15.7805 78.8134C10.5203 78.8134 5.26017 78.8134 0 78.8134V78.6641C7.89333 78.6641 15.7805 78.6641 23.6738 78.6641C23.9698 78.6641 24.2658 78.6765 24.5557 78.689C24.5557 78.7201 24.5557 78.7574 24.5557 78.7885Z" fill="#CE8B90"/>
<path d="M73.8397 59.1567C73.8829 59.1567 73.9199 59.1567 73.9631 59.1567V78.8134C73.9076 78.8134 73.8582 78.801 73.8027 78.7947C73.8027 78.745 73.8027 78.6952 73.8027 78.6454C73.8027 72.4479 73.8089 66.2441 73.8151 60.0465C73.8151 59.7479 73.8274 59.4554 73.8397 59.1567Z" fill="#E6C4C7"/>
<path d="M70.9844 52.4613C70.9906 56.6988 71.0029 60.9425 71.0091 65.1799C71.0091 68.3783 70.9967 71.5766 70.9906 74.7749C70.8919 74.7749 70.7932 74.7874 70.6945 74.7874C48.3157 74.7874 25.9369 74.7874 3.55805 74.7874L3.53955 74.7998C3.53955 72.1926 3.54572 69.5917 3.55188 66.9845C3.55805 62.1434 3.56422 57.3086 3.57655 52.4675C4.31655 52.4675 5.05655 52.4551 5.79038 52.4551C12.0434 52.4551 18.3026 52.4426 24.5556 52.4426C24.9256 52.4426 25.2955 52.4551 25.6656 52.4551C40.7739 52.4551 55.8761 52.4613 70.9844 52.4613ZM32.9669 65.3915C33.2506 64.5079 33.2506 63.6306 32.9669 62.747C31.1169 62.7408 29.2607 62.7656 27.4107 62.7283C25.4189 62.691 26.0417 61.602 26.0479 59.7727C28.4036 59.7664 30.7592 59.7602 33.1149 59.7415C33.3307 59.7415 33.7069 59.8784 33.7069 59.5175C33.7069 58.6962 33.8857 57.8624 33.6021 57.0535C33.5157 56.8854 33.3554 56.9228 33.2136 56.9228C29.7417 56.9228 26.2699 56.9352 22.7981 56.9414C22.5576 57.0223 22.6439 57.2277 22.6439 57.377C22.6439 62.131 22.6501 66.8849 22.6562 71.6451C22.7981 71.9002 23.0447 71.8068 23.2544 71.8068C27.6327 71.8068 32.0111 71.8068 36.3832 71.8068C36.5867 71.8068 36.8334 71.9002 36.9814 71.6388V62.1994C37.0246 62.1932 37.0677 62.187 37.1109 62.1745C39.0904 65.3417 41.0699 68.5152 43.0494 71.6824C44.1347 71.8628 45.2201 71.9313 46.3054 71.6513C46.5891 71.421 46.4534 71.0975 46.4534 70.8237C46.4657 67.14 46.4657 63.4563 46.4719 59.7664C47.7484 59.7664 49.0249 59.754 50.3014 59.754C50.3076 63.7115 50.3137 67.6751 50.3261 71.6388C51.4052 71.9375 52.4844 71.9002 53.5636 71.6575C53.8411 71.4211 53.7116 71.1037 53.7116 70.8237C53.7239 67.14 53.7239 63.4563 53.7301 59.7727H57.5534C57.5596 63.7239 57.5657 67.6814 57.5781 71.6451C58.0036 72.3482 62.2771 71.8131 63.1096 71.8131C64.0037 71.8131 68.1354 72.3793 68.6534 71.6575C68.9062 70.7677 68.9062 69.8779 68.6534 68.9881C68.4437 68.7205 68.1539 68.845 67.9011 68.8387C65.5454 68.8263 63.1959 68.8263 60.8402 68.8263C60.8402 67.6938 60.8341 66.5613 60.8279 65.4288C62.9677 65.4226 65.1076 65.4226 67.2536 65.3977C67.4632 65.3977 67.7469 65.5657 67.8949 65.2484C67.8949 64.4644 67.8949 63.6741 67.8949 62.8901C67.7099 62.5665 67.4077 62.7345 67.1672 62.7345C65.0521 62.7159 62.9431 62.7159 60.8279 62.7096C60.8279 61.7265 60.8279 60.7496 60.8217 59.7664C63.1342 59.7602 65.4529 59.7602 67.7654 59.7353C67.9997 59.7353 68.3081 59.9095 68.4869 59.586L68.5177 59.5984C68.7212 58.7024 68.7829 57.8126 68.4807 56.929C64.8609 56.929 61.2411 56.9166 57.6151 56.9166C53.8472 56.9166 50.0794 56.929 46.3116 56.9414C45.3311 56.9414 44.3567 56.9352 43.3762 56.929C42.7102 57.377 43.2097 60.7931 43.2097 61.6892C43.2097 62.4856 43.6599 65.9951 43.0432 66.4618C41.3042 63.6368 39.5591 60.818 37.8324 57.9806C37.3761 57.2277 36.8827 56.705 35.8899 56.8979C35.2979 57.0099 34.6627 56.929 34.0522 56.9352C33.6946 57.6508 33.9597 58.4099 33.9104 59.1504C33.8981 62.3736 33.8857 65.5969 33.8734 68.8201C31.2711 68.8201 28.6687 68.8201 26.0726 68.8201C26.0726 67.6876 26.0726 66.5613 26.0726 65.4288C28.3727 65.4164 30.6791 65.4102 32.9792 65.3977L32.9669 65.3915ZM18.9377 71.7944C19.9244 71.7446 20.9172 71.9873 21.8916 71.6575C22.1259 71.5019 22.0457 71.2593 22.0457 71.0477C22.0457 66.5427 22.0457 62.0376 22.0457 57.5326C22.0457 57.3272 22.1382 57.0783 21.8792 56.9352C20.5287 56.9352 19.1721 56.9477 17.8216 56.9166C17.4331 56.9103 17.2727 57.0659 17.1617 57.4081C16.3169 60.1087 15.4782 62.8092 14.6026 65.4973C14.4607 65.9266 14.4176 66.4182 14.0784 66.7791C13.9982 66.7169 13.9427 66.6982 13.9304 66.6671C12.9622 63.5559 11.8769 60.482 10.8039 57.4019C10.6867 57.0659 10.5326 56.9103 10.1441 56.9166C8.84289 56.9477 7.53555 56.9414 6.23438 56.9477C5.99388 57.0223 6.07405 57.2277 6.07405 57.3832C6.07405 62.1372 6.08638 66.8973 6.09255 71.6513C7.11622 71.9313 8.13988 71.9313 9.16355 71.6513V61.7638C10.5202 64.9995 11.4946 68.3596 12.7464 71.6326C13.5666 72.006 14.4176 71.7944 15.2624 71.7446C15.3056 71.7446 15.3364 71.5828 15.3734 71.5019C15.8236 70.1641 16.2614 68.8201 16.7239 67.4822C17.3591 65.6529 18.0189 63.8297 18.6664 62.0003C19.3509 62.7096 18.7897 65.8457 18.7897 66.9098C18.7897 67.7249 18.3272 71.3153 18.9377 71.8006V71.7944Z" fill="#FDFDFC"/>
<path d="M41.1131 52.3058C41.1193 46.7057 41.1254 41.1055 41.1378 35.4991C42.2169 35.4991 43.2961 35.4991 44.3691 35.4991V36.9551C45.9539 34.9888 48.7351 34.6155 50.8996 35.8911C53.1874 37.2351 53.9398 40.1285 53.6993 42.6362C53.4773 44.9385 52.3179 47.1412 50.0794 47.9937C48.2911 48.6719 46.0464 48.3795 44.8008 46.8114C44.8131 46.6932 44.7638 46.6248 44.6528 46.5936C44.2951 46.6372 44.5294 51.696 44.5294 52.3058C43.3886 52.3058 42.2478 52.3058 41.1069 52.3058H41.1131ZM44.3629 41.7215C44.3321 42.3935 44.4801 43.0406 44.6836 43.6567C45.2201 45.2496 46.8604 46.2265 48.4576 45.4985C50.2953 44.6585 50.4988 42.1571 50.1041 40.4023C49.7279 38.7409 48.5254 37.4529 46.7001 37.8387C44.8378 38.2369 44.5048 40.0912 44.3568 41.7215H44.3629Z" fill="#FDFDFC"/>
<path d="M61.8516 42.6423C62.1352 44.0486 62.4621 45.262 64.0037 45.6478C65.4097 46.0024 66.9206 45.4237 67.6051 44.1295C68.6041 44.1917 69.6154 43.9366 70.6021 44.2664C69.4797 47.4274 66.4581 48.8336 63.2514 48.1803C59.9892 47.5145 58.2934 44.4593 58.4352 41.2485C58.5956 37.6333 61.7467 34.7772 65.3542 35.1941C69.0912 35.6296 71.0337 38.8466 70.8364 42.4619C68.0861 42.4619 65.3296 42.4681 62.5792 42.4868C62.3387 42.4868 62.0366 42.3312 61.8454 42.6423H61.8516ZM61.9934 40.2405C62.0921 40.5827 67.2166 40.5516 67.2844 40.2405C67.1611 38.8404 66.5444 38.2866 65.0459 37.8324C63.8187 37.4528 61.6851 38.7657 61.9872 40.2467L61.9934 40.2405Z" fill="#FDFDFC"/>
<path d="M7.22742 43.9739C8.21409 46.9794 13.2214 45.8095 11.9449 43.8059C11.2481 42.7108 8.68892 42.6423 7.53575 42.3063C6.17292 41.9143 4.86559 41.3978 4.40925 39.9107C2.61475 34.018 15.0406 33.2278 15.1084 38.8902C14.9358 39.1515 14.6706 39.0395 14.4424 39.0458C13.6161 39.0644 12.7959 39.0644 11.9696 39.0707C11.1741 36.7061 6.74642 37.5462 7.97975 39.2449C8.76292 40.3214 11.3098 40.34 12.4814 40.6947C13.7148 41.0743 14.9234 41.5845 15.3921 42.8912C17.6368 49.207 4.18725 50.6879 4.02075 43.9739C5.08759 43.9739 6.16059 43.9739 7.22742 43.9739Z" fill="#FDFDFC"/>
<path d="M54.4579 47.8319C54.4579 42.1322 54.4517 36.4324 54.4456 30.7327C55.5741 30.7327 56.7026 30.7202 57.8372 30.7202C57.8434 36.4324 57.8496 42.1384 57.8557 47.8506L57.8249 47.8381C56.7026 47.8381 55.5802 47.8381 54.4579 47.8381V47.8319Z" fill="#FDFDFC"/>
<path d="M28.7242 40.8379C28.6811 40.2281 28.7119 39.6246 28.4775 39.0334C28.163 38.2556 27.3552 37.7578 26.5474 37.8947C24.8022 38.1934 24.4137 39.3197 24.4137 40.5455C24.4137 42.9722 24.4014 45.4052 24.389 47.832C23.2667 47.832 22.1444 47.832 21.022 47.832L20.9912 47.8444C21.0035 43.7251 21.0159 39.6059 21.0282 35.4866C22.1999 35.4866 23.5812 35.0822 24.1177 36.028C24.3705 36.4698 23.8649 36.7436 24.315 36.9116C24.4507 36.9614 25.0982 36.1213 25.2277 36.0218C27.4354 34.3168 30.0254 35.244 31.5979 37.1356C34.12 33.7568 39.9291 34.8768 39.8057 39.4814C39.8057 42.0451 39.7872 44.615 39.8057 47.1786C39.8057 47.7013 39.6454 47.8693 39.1335 47.8444C38.2764 47.8071 37.4192 47.8257 36.562 47.8195C36.5559 45.7474 36.5497 43.6691 36.5374 41.5971C36.5374 41.342 36.6484 41.0495 36.414 40.8255C36.2414 39.4254 36.3277 38.1187 34.6257 37.9321C33.158 37.7703 32.4735 38.7659 32.1282 40.0788C32.1159 42.6611 32.1035 45.2372 32.085 47.8195C30.309 47.8319 28.8907 48.4729 28.8537 46.3759C28.8352 45.3181 28.8599 44.254 28.8537 43.1962C28.8537 42.6798 29.1251 41.2673 28.7242 40.8255V40.8379ZM24.5555 37.5649C22.9214 36.7622 24.9749 35.6484 22.4835 35.6484C20.8432 35.6484 21.1454 36.1276 21.1515 37.7516C21.1515 39.3197 21.1515 40.8939 21.1515 42.462C21.1515 43.6505 20.6274 46.1394 21.1454 47.1724C21.4167 47.7137 23.2482 48.1182 23.8649 47.6888C24.7159 47.0977 24.2534 45.2434 24.2472 44.3038C24.2472 42.8167 24.278 41.3233 24.2164 39.8361C24.1917 39.2325 24.1485 39.1143 24.3705 38.5854C24.5185 38.2307 25.4559 38.4485 24.9934 37.7143C26.2267 36.9925 28.4344 37.7827 28.8414 39.077C29.3224 40.6077 29.0079 42.6611 29.0079 44.2354C29.0079 44.8701 28.6872 46.6435 28.9894 47.1724C29.3224 47.7635 29.3039 47.6328 30.0994 47.6826C32.3194 47.8195 31.9555 47.0106 31.9555 44.9883C31.9555 43.1527 30.938 38.1312 33.4602 37.54C34.3112 37.3409 35.9145 37.7889 36.4264 38.6227C37.2034 39.8797 36.6854 42.1633 36.6977 43.5758C36.7039 44.6461 36.0687 47.2595 37.2712 47.7511C37.5549 47.8693 38.597 47.8195 38.9239 47.6951C39.7995 47.359 39.6207 47.2906 39.6516 46.2079C39.7317 43.4514 40.7184 37.7392 37.9434 36.0716C36.673 35.3062 35.4767 35.2191 34.2064 35.8351C33.6082 36.1213 33.01 36.3267 32.455 36.7C31.3882 37.4218 31.8199 37.4592 30.9319 36.5818C30.2227 35.8787 28.7119 35.1133 27.6574 35.3373C26.6337 35.5551 24.8947 36.532 24.5555 37.5712V37.5649Z" fill="#FDFDFC"/>
<path d="M3.55811 74.7873C25.9369 74.7873 48.3158 74.7873 70.6946 74.7873C70.7933 74.7873 70.8919 74.7749 70.9906 74.7749C70.8303 75.0736 70.5528 74.9367 70.3308 74.9367C48.2973 74.9429 26.2638 74.9429 4.23027 74.9367C4.00827 74.9367 3.73077 75.0611 3.55811 74.7873Z" fill="#CD8A8F"/>
<path d="M19.5175 33.5202C18.4383 33.5202 17.3653 33.5202 16.2861 33.5202C16.2861 32.5868 16.2861 31.6597 16.2861 30.7263C17.3591 30.7263 18.4321 30.7263 19.5113 30.7325C19.5113 31.6597 19.5113 32.5868 19.5113 33.514L19.5175 33.5202Z" fill="#FDFDFC"/>
<path d="M73.8027 78.6453C73.8027 78.695 73.8027 78.7448 73.8027 78.7946C65.6257 79.0684 57.3993 78.8133 49.2162 78.8133C41.0207 78.8133 32.745 79.1244 24.5557 78.7884C24.5557 78.7573 24.5557 78.7199 24.5557 78.6888C40.959 78.2781 57.3932 78.9564 73.8027 78.6453Z" fill="#CE8B90"/>
<path d="M41.1132 52.3059C42.2541 52.3059 43.3949 52.3059 44.5357 52.3059C44.5851 52.2997 44.6344 52.2934 44.6837 52.2872C48.9202 52.2934 53.1567 52.3059 57.3932 52.3059C61.6791 52.3059 65.9649 52.3059 70.2569 52.3183C70.4912 52.3183 70.7996 52.1441 70.9784 52.4677C55.8701 52.4677 40.7679 52.4677 25.6596 52.4614C25.2896 52.4614 24.9196 52.4552 24.5496 52.449C24.5496 52.4117 24.5496 52.3743 24.5496 52.337C29.4767 52.3308 34.4039 52.3183 39.3311 52.3121C39.9231 52.3121 40.5151 52.3121 41.1071 52.3121L41.1132 52.3059Z" fill="#E5C4C6"/>
<path d="M3.57058 52.4676C3.56442 57.3086 3.55825 62.1435 3.54592 66.9845C3.54592 69.5917 3.53975 72.1927 3.53358 74.7999C3.29925 74.5759 3.40408 74.2834 3.40408 74.0283C3.40408 67.0467 3.40408 60.059 3.40408 53.0774C3.40408 52.8223 3.27458 52.5236 3.56442 52.3245C3.55208 52.3742 3.55208 52.424 3.56442 52.4676H3.57058Z" fill="#B55159"/>
<path d="M3.57052 52.4676C3.55202 52.4178 3.55202 52.3742 3.57052 52.3245C10.5697 52.3245 17.5627 52.3307 24.5618 52.3369C24.5618 52.3742 24.5618 52.4116 24.5618 52.4489C18.3088 52.4489 12.0497 52.4551 5.79668 52.4614C5.05668 52.4614 4.31668 52.4676 3.58285 52.4738L3.57052 52.4676Z" fill="#E5C4C6"/>
<path d="M57.8557 47.8442C57.8495 42.132 57.8433 36.4261 57.8372 30.7139C58.0838 30.9005 57.9852 31.1681 57.9852 31.3983C57.9852 36.6438 57.9852 41.8894 57.9852 47.1349C57.9852 47.3713 58.0653 47.6327 57.8557 47.838V47.8442Z" fill="#B55159"/>
<path d="M16.2799 47.9626C16.0517 47.8754 16.1257 47.6763 16.1257 47.5208C16.1257 43.5135 16.138 39.5063 16.1442 35.499C16.1935 35.499 16.2429 35.499 16.2922 35.499C16.2922 39.6058 16.2922 43.7189 16.2922 47.8257C16.2799 47.8692 16.2799 47.919 16.286 47.9688L16.2799 47.9626Z" fill="#CD8A8F"/>
<path d="M21.0282 35.4866C21.0159 39.6058 21.0035 43.7251 20.9912 47.8443C20.7815 47.6452 20.8617 47.3776 20.8617 47.1412C20.8617 43.4824 20.8617 39.8236 20.8617 36.1586C20.8617 35.9284 20.7569 35.6546 21.0282 35.4866Z" fill="#B55159"/>
<path d="M19.6593 35.5051C19.6531 39.6181 19.6408 43.7312 19.6346 47.838C19.5915 47.838 19.5483 47.838 19.5051 47.8318C19.5051 43.725 19.5113 39.6119 19.5175 35.5051L19.5915 35.4927L19.6655 35.5051H19.6593Z" fill="#E5C4C6"/>
<path d="M36.5621 47.8195C37.4192 47.8195 38.2764 47.8071 39.1336 47.8444C39.6454 47.8693 39.8057 47.7013 39.8057 47.1786C39.7872 44.615 39.8057 42.0451 39.8057 39.4814C40.4841 39.9295 39.9414 44.8265 39.9414 45.7225C39.9414 46.2701 40.2189 47.5395 39.7317 47.944C39.3062 48.2924 37.1356 47.9626 36.5559 47.9564C36.5559 47.9128 36.5559 47.8631 36.5621 47.8195Z" fill="#E5C4C6"/>
<path d="M28.7244 40.8379C29.1253 41.2735 28.8478 42.6922 28.8539 43.2086C28.8539 44.2665 28.8293 45.3305 28.8539 46.3883C28.8971 48.479 30.3154 47.8381 32.0853 47.8319C32.0914 47.8755 32.0976 47.9252 32.0914 47.9688C31.1356 47.9812 30.1798 47.9688 29.2239 48.0061C28.7799 48.0248 28.6936 47.8319 28.6998 47.4399C28.7244 45.2434 28.7244 43.0469 28.7306 40.8503L28.7244 40.8379Z" fill="#E5C4C6"/>
<path d="M61.8516 42.6422C62.0366 42.3311 62.3387 42.4866 62.5854 42.4866C65.3357 42.468 68.0922 42.468 70.8426 42.4618C70.6576 42.7729 70.3554 42.6173 70.1087 42.6173C67.3584 42.636 64.6019 42.636 61.8516 42.6422Z" fill="#CD8A8F"/>
<path d="M32.0853 47.9562C32.0853 47.9127 32.0853 47.8629 32.0791 47.8193C32.0914 45.237 32.1038 42.6609 32.1223 40.0786C32.5478 40.3835 32.5478 47.726 32.0853 47.9562Z" fill="#CD8A8F"/>
<path d="M36.5622 47.8195C36.556 47.863 36.5498 47.9128 36.556 47.9563C36.3463 47.863 36.3957 47.6701 36.3957 47.5083C36.3957 45.2807 36.408 43.0531 36.4142 40.8254C36.6485 41.0494 36.5375 41.3419 36.5375 41.597C36.556 43.6691 36.556 45.7474 36.5622 47.8195Z" fill="#CD8A8F"/>
<path d="M44.6837 52.2809C44.6344 52.2871 44.5851 52.2934 44.5357 52.2996C44.5357 51.6898 44.2952 46.631 44.6591 46.5874C44.7639 46.6123 44.8132 46.687 44.8071 46.8052C44.5912 47.0043 44.6837 47.2656 44.6837 47.5021C44.6837 49.095 44.6837 50.688 44.6837 52.2809Z" fill="#B55159"/>
<path d="M19.6593 35.5052L19.5854 35.4928L19.5113 35.5052C18.4383 35.5052 17.3654 35.5052 16.2862 35.499C16.2369 35.499 16.1875 35.499 16.1382 35.499C16.9707 35.1132 17.8464 35.4057 18.6974 35.3435C19.0057 35.3186 19.3819 35.1755 19.6532 35.499L19.6593 35.5052Z" fill="#B55159"/>
<path d="M19.5174 30.7389C18.4444 30.7389 17.3714 30.7389 16.2922 30.7327C16.2429 30.7264 16.1997 30.7327 16.1504 30.7327C16.9829 30.3531 17.8524 30.6393 18.7034 30.5771C19.0117 30.5522 19.3817 30.4091 19.6531 30.7327C19.6037 30.7202 19.5606 30.7202 19.5112 30.7327L19.5174 30.7389Z" fill="#B55159"/>
<path d="M11.9695 39.0706C12.7958 39.0644 13.616 39.0706 14.4423 39.0457C14.6705 39.0457 14.9356 39.1515 15.1083 38.8901C15.2193 38.9897 15.2501 39.1639 15.1083 39.1639C14.0661 39.1639 13.0116 39.3444 11.9756 39.0706H11.9695Z" fill="#CD8A8F"/>
<path d="M19.5051 47.8256C19.5483 47.8256 19.5915 47.8318 19.6346 47.8318C19.0981 48.1429 18.5123 47.9376 17.9573 47.9749C17.4023 48.006 16.8411 47.9749 16.2861 47.9625C16.2861 47.9127 16.2861 47.8691 16.2923 47.8193C17.3653 47.8193 18.4383 47.8193 19.5051 47.8193V47.8256Z" fill="#E5C4C6"/>
<path d="M21.0222 47.8318C22.1446 47.8318 23.2669 47.8318 24.3892 47.8318C24.0932 48.1554 23.7047 47.9936 23.3717 47.9749C22.5886 47.9313 21.7869 48.174 21.0222 47.8318Z" fill="#E5C4C6"/>
<path d="M54.4578 47.8318C55.5801 47.8318 56.7024 47.8318 57.8248 47.8318C56.9368 48.1802 56.0118 47.9127 55.1053 47.9811C54.8956 47.9936 54.6119 48.1429 54.4578 47.838V47.8318Z" fill="#E5C4C6"/>
<path d="M57.8372 30.7202C56.7087 30.7202 55.5802 30.7326 54.4456 30.7326C54.7971 30.3841 55.2349 30.5646 55.6234 30.5833C56.3634 30.6144 57.1219 30.3779 57.8372 30.7202Z" fill="#B55159"/>
<path d="M7.22742 43.9739C6.16059 43.9739 5.08759 43.9739 4.02075 43.9739C4.42159 43.6317 4.90259 43.8184 5.32809 43.837C5.95709 43.8619 6.61692 43.613 7.22742 43.9739Z" fill="#E5C4C6"/>
<path d="M70.6083 44.2663C69.6217 43.9365 68.6103 44.1854 67.6113 44.1294C68.598 43.7934 69.6032 43.9863 70.6022 44.036C70.7008 44.036 70.6762 44.1916 70.6022 44.2725L70.6083 44.2663Z" fill="#B5525A"/>
<path d="M44.3693 35.4991C43.2901 35.4991 42.2109 35.4991 41.1379 35.4991C42.2171 35.2191 43.2963 35.2191 44.3693 35.4991Z" fill="#B55159"/>
<path d="M16.1504 30.7325C16.1998 30.7263 16.2429 30.7201 16.2923 30.7325C16.2923 31.6659 16.2923 32.593 16.2923 33.5264C15.9284 32.6117 16.1998 31.6659 16.1566 30.7325H16.1504Z" fill="#CD8A8F"/>
<path d="M19.5176 30.7388C19.5669 30.7264 19.6101 30.7264 19.6594 30.7388C19.6594 31.5229 19.6779 32.3131 19.6717 33.0971C19.6717 33.2465 19.7704 33.458 19.5176 33.5265C19.5176 32.5993 19.5176 31.6722 19.5176 30.745V30.7388Z" fill="#E5C4C6"/>
<path d="M67.8827 62.8964C67.8827 63.6804 67.8827 64.4707 67.8827 65.2547C65.7737 65.2547 63.6647 65.2547 61.5557 65.2672C61.3091 65.2672 61.0069 65.1365 60.8157 65.429C60.8157 66.5614 60.8219 67.6939 60.8281 68.8264C60.9761 69.1437 61.2597 68.9757 61.4694 68.9757C63.8621 68.9944 66.2486 68.9882 68.6412 68.9882V71.6638C64.9474 71.6576 61.2536 71.6514 57.5597 71.6452C57.5536 67.6877 57.5474 63.7302 57.5351 59.7728C57.3131 59.3745 53.7981 59.3745 53.5637 59.7728L53.5452 71.6576C52.5154 71.6514 51.4856 71.6452 50.4496 71.6389C50.4496 67.9553 50.4496 64.2716 50.4311 60.5879C50.4311 60.3079 50.5667 59.9905 50.2831 59.7541C49.1176 59.3994 47.9274 59.6981 46.7496 59.6048C46.5892 59.5923 46.3981 59.5674 46.3056 59.7728C46.2994 63.7364 46.2932 67.7001 46.2871 71.6638C45.2017 71.67 44.1164 71.6825 43.0311 71.6949C41.0516 68.5277 39.0721 65.3543 37.0926 62.1871C37.0494 62.1933 37.0062 62.1995 36.9631 62.212V71.6514C35.9887 71.6514 35.0144 71.6514 34.0339 71.6514C34.0277 71.1785 34.0154 70.7118 34.0154 70.2389C34.0031 66.5428 33.9969 62.8529 33.9907 59.1567C34.0031 58.4163 34.0154 57.682 34.0339 56.9416C34.6506 56.9416 35.2796 57.0162 35.8716 56.9042C36.8644 56.7113 37.3577 57.2402 37.8141 57.9869C39.5346 60.8181 41.2859 63.6431 43.0249 66.4681C43.5984 66.7232 43.3209 66.2005 43.3209 66.0823C43.3456 63.0333 43.3456 59.9843 43.3517 56.9416C44.3322 56.9416 45.3066 56.9478 46.2871 56.954C46.5461 57.178 46.8544 57.0722 47.1381 57.0722C54.2421 57.0847 61.3522 57.0847 68.4562 57.0847C68.4686 57.9247 68.4809 58.7709 68.4932 59.611L68.4624 59.5985C66.1561 59.5985 63.8436 59.5985 61.5372 59.611C61.2906 59.611 60.9884 59.4803 60.7972 59.7728C60.7972 60.7559 60.7972 61.7328 60.8034 62.716C60.9822 63.0395 61.2906 62.8715 61.5311 62.8715C63.6462 62.8902 65.7552 62.8902 67.8704 62.8964H67.8827Z" fill="#171716"/>
<path d="M18.6603 61.9941C18.0128 63.8172 17.3591 65.6466 16.7178 67.476C16.2553 68.8076 15.8174 70.1517 15.3673 71.4957C14.5101 71.8504 13.6159 71.6139 12.7403 71.6326C11.4884 68.3596 10.5141 64.9995 9.15744 61.7638V71.6513C8.1831 71.6513 7.2026 71.6513 6.22827 71.6513C6.22827 66.748 6.22827 61.8447 6.22827 56.9414C7.52944 56.9414 8.83677 56.9414 10.1379 56.9103C10.5264 56.8979 10.6806 57.0597 10.7978 57.3957C11.8708 60.4758 12.9561 63.5434 13.9243 66.6609C13.9366 66.6982 13.9921 66.7169 14.0723 66.7729C14.4114 66.412 14.4546 65.9142 14.5964 65.4911C15.4721 62.803 16.3108 60.1024 17.1556 57.4019C17.2604 57.0597 17.4208 56.9041 17.8154 56.9103C19.1659 56.9414 20.5226 56.929 21.8731 56.929L21.8854 71.6575C20.9049 71.6575 19.9183 71.6513 18.9378 71.6451V61.5212C18.6849 61.6829 18.6109 61.8012 18.6603 61.9941Z" fill="#171716"/>
<path d="M68.4685 57.0845C61.3645 57.0845 54.2543 57.0845 47.1503 57.0721C46.8666 57.0721 46.5583 57.1779 46.2993 56.9538C50.0671 56.9476 53.835 56.9352 57.6028 56.929C61.2227 56.929 64.8425 56.9352 68.4685 56.9414C68.4808 56.9912 68.4808 57.041 68.4685 57.0845Z" fill="#515150"/>
<path d="M21.8854 71.6575C21.8854 66.748 21.8792 61.8385 21.873 56.929C22.1259 57.0721 22.0395 57.321 22.0395 57.5263C22.0395 62.0313 22.0395 66.5364 22.0395 71.0414C22.0395 71.253 22.1259 71.4957 21.8854 71.6512V71.6575Z" fill="#C4C4C3"/>
<path d="M22.6502 71.645C22.6502 66.8911 22.6379 62.1371 22.6379 57.377C22.6379 57.2214 22.5515 57.0161 22.792 56.9414C22.792 56.9912 22.792 57.0347 22.7982 57.0845C22.7982 61.938 22.7982 66.7915 22.7982 71.6512C22.7489 71.6512 22.6995 71.6512 22.6502 71.6512V71.645Z" fill="#8A8A89"/>
<path d="M6.2284 56.9414C6.2284 61.8447 6.2284 66.748 6.2284 71.6512C6.17907 71.6575 6.12973 71.6512 6.0804 71.645C6.07423 66.8911 6.0619 62.1309 6.0619 57.377C6.0619 57.2214 5.98173 57.0161 6.22223 56.9414H6.2284Z" fill="#8A8A89"/>
<path d="M22.6502 71.645C22.6995 71.645 22.7489 71.645 22.7982 71.645C26.4365 71.645 30.0749 71.6388 33.7132 71.6326L33.781 71.645L33.8489 71.6326C33.9105 71.6326 33.9722 71.6388 34.04 71.645C35.0144 71.645 35.9887 71.645 36.9692 71.645C36.8274 71.9001 36.5807 71.8068 36.371 71.813C31.9927 71.813 27.6144 71.813 23.2422 71.813C23.0387 71.813 22.792 71.9064 22.644 71.6512L22.6502 71.645Z" fill="#C4C4C3"/>
<path d="M34.0461 71.6514C33.9845 71.6514 33.9228 71.6452 33.855 71.6389C33.8611 70.7553 33.8673 69.8718 33.8735 68.9944C33.8735 68.9384 33.8673 68.8824 33.8611 68.8264C33.8735 65.6032 33.8858 62.38 33.8981 59.1567H33.9475H33.9968C34.003 62.8529 34.0153 66.5428 34.0215 70.2389C34.0215 70.7118 34.0338 71.1785 34.04 71.6514H34.0461Z" fill="#8A8A89"/>
<path d="M53.5452 71.6636C53.5513 67.7 53.5575 63.7363 53.5637 59.7788L53.6377 59.7664L53.7117 59.7788C53.7117 63.4625 53.7117 67.1462 53.6932 70.8298C53.6932 71.1099 53.8227 71.4272 53.5452 71.6636Z" fill="#C4C4C3"/>
<path d="M50.2891 59.7539C50.5727 59.9904 50.4371 60.3077 50.4371 60.5877C50.4494 64.2714 50.4494 67.9551 50.4556 71.6388C50.4062 71.6574 50.3569 71.6574 50.3137 71.6388L50.2891 59.7539Z" fill="#515150"/>
<path d="M46.2932 71.6574C46.2994 67.6937 46.3055 63.73 46.3117 59.7664L46.3857 59.7539L46.4597 59.7664C46.4597 63.45 46.4597 67.1337 46.4412 70.8236C46.4412 71.1036 46.5769 71.421 46.2932 71.6574Z" fill="#C4C4C3"/>
<path d="M57.5535 71.645C61.2473 71.645 64.9411 71.6575 68.635 71.6575C68.117 72.373 63.9853 71.813 63.0911 71.813C62.2586 71.813 57.9851 72.3419 57.5596 71.645H57.5535Z" fill="#C4C4C3"/>
<path d="M22.7981 57.0846C22.7857 57.0348 22.7857 56.9913 22.7919 56.9415C26.2637 56.9353 29.7356 56.929 33.2074 56.9228C33.3492 56.9228 33.5096 56.8793 33.5959 57.0535L33.5466 57.1033C29.9637 57.097 26.3809 57.0908 22.7981 57.0846Z" fill="#515150"/>
<path d="M18.6604 61.9941C18.6111 61.8075 18.6851 61.683 18.9379 61.5212V71.6451C18.9379 71.6949 18.9379 71.7447 18.9379 71.7945C18.3274 71.3091 18.7899 67.7188 18.7899 66.9036C18.7899 65.8396 19.3511 62.7035 18.6666 61.9941H18.6604Z" fill="#C4C4C3"/>
<path d="M33.5959 57.0535C33.8734 57.8624 33.6946 58.6962 33.7007 59.5175C33.7007 59.8847 33.3246 59.7416 33.1087 59.7416C30.7531 59.7602 28.3974 59.7664 26.0417 59.7727C26.0541 59.7416 26.0541 59.7167 26.0417 59.6856C27.0777 59.026 30.0501 59.5798 31.2711 59.5922C33.6699 59.6171 33.5959 59.4864 33.5404 57.1032L33.5897 57.0535H33.5959Z" fill="#515150"/>
<path d="M26.0419 59.779C26.0419 61.6084 25.4129 62.6973 27.4048 62.7347C29.2548 62.7658 31.1109 62.7471 32.9609 62.7533C32.9733 62.8031 32.9733 62.8529 32.9671 62.9027C30.9999 62.8529 28.9094 63.1142 26.9608 62.8778C26.4119 62.8093 26.2578 63.0147 25.9124 62.604C25.5671 62.1933 25.8693 60.1648 26.0419 59.6919C26.0481 59.723 26.0419 59.7479 26.0419 59.779Z" fill="#8A8A89"/>
<path d="M43.3641 56.9352C43.3579 59.9842 43.3579 63.0332 43.3332 66.0759C43.3332 66.2004 43.6107 66.7168 43.0372 66.4617C43.6539 65.995 43.2037 62.4918 43.2037 61.6891C43.2037 60.7931 42.7042 57.377 43.3702 56.929L43.3641 56.9352Z" fill="#C4C4C3"/>
<path d="M68.6349 68.9881C66.2423 68.9881 63.8558 68.9881 61.4631 68.9757C61.2534 68.9757 60.9698 69.1437 60.8218 68.8263C63.1774 68.8263 65.5269 68.8263 67.8826 68.8388C68.1354 68.8388 68.4253 68.7205 68.6349 68.9881Z" fill="#C4C4C3"/>
<path d="M33.8613 68.8263C33.8613 68.8823 33.8674 68.9383 33.8736 68.9943C33.8181 68.9943 33.7688 69.0067 33.7133 69.013C31.1603 68.9943 28.6011 68.9756 26.0481 68.957C26.0481 68.9134 26.0481 68.8636 26.0604 68.8201C28.6628 68.8201 31.2651 68.8201 33.8613 68.8201V68.8263Z" fill="#C4C4C3"/>
<path d="M60.8096 59.7727C61.0007 59.4802 61.3029 59.6109 61.5496 59.6109C63.8559 59.5984 66.1684 59.5984 68.4747 59.5984C68.2897 59.922 67.9876 59.7416 67.7532 59.7478C65.4407 59.7727 63.1221 59.7727 60.8096 59.7789V59.7727Z" fill="#515150"/>
<path d="M67.8827 62.8963C65.7675 62.8963 63.6585 62.8963 61.5433 62.8714C61.3028 62.8714 61.0007 63.0332 60.8157 62.7158C62.9308 62.7158 65.0398 62.7158 67.155 62.7407C67.3955 62.7407 67.6977 62.5789 67.8827 62.8963Z" fill="#8A8A89"/>
<path d="M32.967 65.3978L26.0604 65.4289C26.011 65.4227 25.9617 65.4289 25.9124 65.4289C26.1097 65.1427 26.4057 65.2672 26.6585 65.2672C28.7614 65.2547 30.8642 65.2547 32.967 65.2485C32.9855 65.2983 32.9855 65.348 32.967 65.3916V65.3978Z" fill="#515150"/>
<path d="M60.8096 65.4289C61.0007 65.1365 61.3029 65.2671 61.5496 65.2671C63.6586 65.2547 65.7676 65.2547 67.8766 65.2547C67.7286 65.572 67.4449 65.404 67.2352 65.404C65.0954 65.4227 62.9556 65.4289 60.8096 65.4351V65.4289Z" fill="#515150"/>
<path d="M46.4598 59.7727L46.3858 59.7602L46.3118 59.7727C46.4043 59.5673 46.5893 59.5922 46.7558 59.6046C47.9336 59.698 49.1238 59.3993 50.2893 59.7602C49.0128 59.7602 47.7363 59.7727 46.4598 59.7727Z" fill="#515150"/>
<path d="M53.7056 59.7788L53.6316 59.7664L53.5576 59.7788C53.7858 59.3806 57.307 59.3743 57.529 59.7788H53.7056Z" fill="#515150"/>
<path d="M25.9124 65.4288C25.9617 65.4163 26.0111 65.4163 26.0604 65.4288C26.0604 66.5612 26.0604 67.6875 26.0604 68.82C26.0542 68.8635 26.0481 68.9133 26.0481 68.9569C25.8323 68.8698 25.8877 68.6769 25.8877 68.5151C25.8877 67.4884 25.9001 66.4617 25.9062 65.435L25.9124 65.4288Z" fill="#898988"/>
<path d="M43.0435 71.6886C44.1288 71.6761 45.2141 71.6699 46.2995 71.6575C45.2141 71.9375 44.1288 71.869 43.0435 71.6886Z" fill="#C4C4C3"/>
<path d="M50.3076 71.645C50.357 71.6575 50.4063 71.6575 50.4494 71.645C51.4793 71.6512 52.5091 71.6575 53.5451 71.6637C52.466 71.9064 51.3868 71.9437 50.3076 71.645Z" fill="#C4C4C3"/>
<path d="M6.08643 71.6389C6.13576 71.6514 6.18509 71.6514 6.23443 71.6451C7.20876 71.6451 8.18926 71.6451 9.16359 71.6451C8.13993 71.9189 7.11626 71.9251 6.09259 71.6451L6.08643 71.6389Z" fill="#C5C5C4"/>
<path d="M18.9378 71.7944C18.9378 71.7446 18.9378 71.6948 18.9378 71.645L21.8855 71.6575C20.9111 71.9873 19.9183 71.7446 18.9316 71.7944H18.9378Z" fill="#C4C4C3"/>
<path d="M12.7402 71.6264C13.6159 71.614 14.5039 71.8442 15.3672 71.4895C15.3302 71.5766 15.2994 71.7322 15.2562 71.7322C14.4176 71.782 13.5666 71.9935 12.7402 71.6202V71.6264Z" fill="#C6C6C5"/>
<path d="M32.967 65.3977C32.9794 65.3479 32.9794 65.2982 32.967 65.2546C32.967 64.4706 32.967 63.6865 32.9732 62.9025C32.9794 62.8527 32.9732 62.803 32.967 62.7532C33.2507 63.6368 33.2507 64.5141 32.967 65.3977Z" fill="#C6C6C5"/>
<path d="M68.635 71.6637V68.988C68.8878 69.8778 68.8878 70.7739 68.635 71.6637Z" fill="#C4C4C3"/>
<path d="M68.4685 57.0845C68.487 57.0347 68.487 56.9912 68.4685 56.9414C68.7707 57.825 68.709 58.721 68.5055 59.6108C68.4932 58.7708 68.4808 57.9245 68.4685 57.0845Z" fill="#C5C5C4"/>
<path d="M33.9969 59.1566H33.9475H33.8982C33.9475 58.4161 33.6762 57.657 34.04 56.9414C34.0277 57.6819 34.0154 58.4161 33.9969 59.1566Z" fill="#8A8A89"/>
<path d="M44.363 41.7214C44.511 40.0912 44.844 38.2369 46.7064 37.8386C48.5317 37.4466 49.7342 38.7347 50.1104 40.4023C50.505 42.157 50.3015 44.6584 48.4639 45.4985C46.8667 46.2265 45.2264 45.2558 44.6899 43.6566C44.4802 43.0406 44.3322 42.3935 44.3692 41.7214H44.363Z" fill="#9D1722"/>
<path d="M61.9935 40.2405C61.6851 38.7533 63.8188 37.4466 65.0521 37.8262C66.5506 38.2866 67.1611 38.8342 67.2906 40.2343H61.9996L61.9935 40.2405Z" fill="#9D1722"/>
<path d="M61.9934 40.2405H67.2844C67.2104 40.5516 62.0921 40.5827 61.9934 40.2405Z" fill="#B55159"/>
<path d="M24.5557 37.5649C24.8949 36.532 26.6339 35.555 27.6576 35.331C28.7182 35.1008 30.2229 35.8724 30.9321 36.5755C31.8201 37.4529 31.3884 37.4218 32.4552 36.6937C33.0102 36.3204 33.6022 36.1151 34.2066 35.8288C35.4831 35.219 36.6794 35.3061 37.9436 36.0653C40.7186 37.7391 39.7319 43.4451 39.6517 46.2016C39.6209 47.2843 39.7997 47.3528 38.9241 47.6888C38.5972 47.8132 37.5551 47.8568 37.2714 47.7448C36.0627 47.2532 36.7041 44.646 36.6979 43.5695C36.6917 42.157 37.2036 39.8734 36.4266 38.6165C35.9147 37.7827 34.3114 37.3347 33.4604 37.5338C30.9382 38.1187 31.9557 43.1464 31.9557 44.982C31.9557 47.0043 32.3196 47.8132 30.0996 47.6763C29.3041 47.6266 29.3226 47.7572 28.9896 47.1661C28.6936 46.6372 29.0142 44.8638 29.0081 44.2291C29.0081 42.6548 29.3226 40.6014 28.8416 39.0707C28.4346 37.7764 26.2269 36.9862 24.9936 37.708C24.8456 37.6582 24.6976 37.6084 24.5496 37.5587L24.5557 37.5649Z" fill="#FDFDFC"/>
<path d="M24.5556 37.5649C24.7036 37.6147 24.8516 37.6645 24.9996 37.7143C25.4621 38.4485 24.5248 38.2307 24.3768 38.5854C24.1548 39.1206 24.198 39.2326 24.2226 39.8361C24.2905 41.3233 24.2535 42.8167 24.2535 44.3038C24.2535 45.2372 24.7221 47.0977 23.8711 47.6888C23.2483 48.1182 21.4168 47.7137 21.1516 47.1724C20.6336 46.1395 21.1516 43.6505 21.1578 42.462C21.1578 40.8939 21.1578 39.3197 21.1578 37.7516C21.1578 36.1276 20.8495 35.6547 22.4898 35.6484C24.9811 35.6484 22.9276 36.7623 24.5618 37.5649H24.5556Z" fill="#FDFDFC"/>
<path d="M19.5051 47.8257C18.4321 47.8257 17.3591 47.8257 16.2922 47.8257C16.2922 43.7189 16.2922 39.6058 16.2922 35.499C17.3652 35.499 18.4382 35.499 19.5174 35.5052C19.5174 39.6121 19.5112 43.7251 19.5051 47.8319V47.8257Z" fill="#FDFDFC"/>
<path d="M32.9733 62.8963C32.9733 63.6804 32.9733 64.4644 32.9671 65.2484C30.8643 65.2484 28.7614 65.2484 26.6586 65.2671C26.4058 65.2671 26.1098 65.1489 25.9124 65.4289C25.9063 66.4556 25.8939 67.4823 25.8939 68.509C25.8939 68.6708 25.8384 68.8637 26.0543 68.9508C28.6073 68.9694 31.1664 68.9881 33.7194 69.0005C33.7194 69.8779 33.7194 70.7553 33.7194 71.6326C30.0811 71.6326 26.4428 71.6389 22.8044 71.6451C22.8044 66.7916 22.8044 61.9381 22.8044 57.0784C26.3873 57.0846 29.9701 57.0908 33.5529 57.097C33.6023 59.4802 33.6763 59.6109 31.2836 59.586C30.0626 59.5736 27.0903 59.0198 26.0543 59.6793C25.8816 60.1523 25.5794 62.1808 25.9248 62.5914C26.2701 63.0021 26.4304 62.7968 26.9731 62.8652C28.9218 63.1017 31.0123 62.8403 32.9794 62.8901L32.9733 62.8963Z" fill="#171716"/>
<path d="M33.7192 71.6388C33.7192 70.7614 33.7192 69.8841 33.7192 69.0067C33.7747 69.0067 33.8241 68.9943 33.8796 68.988C33.8734 69.8716 33.8672 70.7552 33.8611 71.6326L33.7932 71.645L33.7254 71.6326L33.7192 71.6388Z" fill="#515150"/>
</g>
<defs>
<clipPath id="clip0_121_33">
<rect width="74" height="79" fill="white"/>
</clipPath>
</defs>
</svg>
